<svg xmlns="http://www.w3.org/2000/svg" version="1.1" xmlns:xlink="http://www.w3.org/1999/xlink" xmlns:svgjs="http://svgjs.dev/svgjs" width="2000" height="200" viewBox="0 0 7500 737"><g transform="matrix(1,0,0,1,-1.2121212121213603,1.1595586835523477)"><svg viewBox="0 0 396 146" data-background-color="#ffffff" preserveAspectRatio="xMidYMid meet" height="737" width="2000" xmlns="http://www.w3.org/2000/svg" xmlns:xlink="http://www.w3.org/1999/xlink"><g id="tight-bounds" transform="matrix(1,0,0,1,0.24000000000003752,-0.2297090472166161)"><svg viewBox="0 0 395.5199999999999 146.45941809443323" height="146.45941809443323" width="395.5199999999999"><g><svg viewBox="0 0 651.939880935085 241.41063813285456" height="146.45941809443323" width="395.5199999999999"><g><rect width="15.75301047944962" height="209.61849910233389" x="436.7582473284021" y="15.896069515260336" fill="#0564bd" opacity="1" stroke-width="0" stroke="transparent" fill-opacity="1" class="rect-qz-0" data-fill-palette-color="primary" rx="1%" id="qz-0" data-palette-color="#0564bd"></rect></g><g transform="matrix(1,0,0,1,0,33.36427777378816)"><svg viewBox="0 0 395.5199999999999 174.68208258527824" height="174.68208258527824" width="395.5199999999999"><g id="textblocktransform"><svg viewBox="0 0 395.5199999999999 174.68208258527824" height="174.68208258527824" width="395.5199999999999" id="textblock"><g><svg viewBox="0 0 395.5199999999999 174.68208258527824" height="174.68208258527824" width="395.5199999999999"><g transform="matrix(1,0,0,1,0,0)"><svg width="395.5199999999999" viewBox="3.1 -35.85 83.54 36.9" height="174.68208258527824" data-palette-color="#0564bd"><path d="M17.75-35.05Q21.2-34.85 23.48-32.25 25.75-29.65 25.75-24.45L25.75-24.45Q25.75-21.05 24.3-19.05 22.85-17.05 20.95-16.28 19.05-15.5 17.6-15.5L17.6-15.5Q16.25-15.5 13.05-15.2L13.05-15.2Q11.2-15 10.05-14.95L10.05-14.95Q9.95-10.35 9.95-8.7L9.95-8.7Q9.95-2.2 10.1-1.65L10.1-1.65Q10.2-1.15 9.93-0.78 9.65-0.4 9.22-0.28 8.8-0.15 8.45-0.3L8.45-0.3Q8.3-0.35 7.6-0.35L7.6-0.35Q6.1-0.35 4.4-0.15L4.4-0.15Q3.6-0.05 3.35-0.48 3.1-0.9 3.1-1.8L3.1-1.8Q3.1-2.9 3.15-3.8L3.15-3.8 3.2-8 3.3-13.9Q3.6-24.5 3.6-30.45L3.6-30.45Q3.6-32.25 3.55-32.6L3.55-32.6Q3.45-33.7 3.45-33.9L3.45-33.9Q3.45-35.2 4-35.2L4-35.2Q4.25-35.2 5.03-35.15 5.8-35.1 7.2-35.1L7.2-35.1Q7.6-35.1 9.25-35.15 10.9-35.2 12.7-35.2L12.7-35.2Q15.35-35.2 17.75-35.05L17.75-35.05ZM16.2-19.1Q18.05-19.1 19.65-20.2 21.25-21.3 21.25-24.15L21.25-24.15Q21.25-27.2 20-28.78 18.75-30.35 16.35-30.8L16.35-30.8Q12.6-31.55 10.45-31.4L10.45-31.4Q10.45-30 10.4-29.3L10.4-29.3Q10.3-26.5 10.15-25.3L10.15-25.3Q9.95-23.55 10.05-21.35L10.05-21.35 10.15-19.4 12.5-19.25Q13.85-19.1 16.2-19.1L16.2-19.1ZM37.8-16.55L38-17.2 38.5-18.6Q38.85-19.45 39.7-22.7L39.7-22.7 40.05-24Q40.25-24.75 40.95-26.85 41.65-28.95 42.05-30.1L42.05-30.1Q42.3-30.65 42.65-31.75L42.65-31.75Q43.95-35.05 44.55-35.05L44.55-35.05Q44.9-35.05 45-34.95 45.1-34.85 45.15-34.6 45.2-34.35 45.25-34.2L45.25-34.2Q45.35-33.8 45.5-33.27 45.65-32.75 45.75-32.1L45.75-32.1Q47.75-26.9 48.15-25.9L48.15-25.9 49.7-22.55 50.6-20.55Q50.7-20.85 50.8-21L50.8-21 51.3-22.25Q51.4-22.55 51.7-24.3L51.7-24.3Q52.05-26.5 52.3-27.45L52.3-27.45Q52.55-28.4 53.2-30.2L53.2-30.2Q53.95-32.4 54.05-33.15L54.05-33.15Q54.25-34.9 55.25-34.9L55.25-34.9Q56.05-35.1 57.05-35.1L57.05-35.1Q57.55-35.1 57.7-35.05L57.7-35.05Q58.3-35.05 58.3-34.6L58.3-34.6 58.2-34 57.75-32.6Q57.4-31.25 57.15-30.55L57.15-30.55Q56.9-29.65 56.55-28.4 56.2-27.15 55.85-25.85L55.85-25.85Q55.1-22.9 54.55-21.05L54.55-21.05Q54.25-19.85 53.9-17.53 53.55-15.2 53.55-14.8L53.55-14.8Q53.55-13.6 52.85-11.9L52.85-11.9Q52.6-11.15 52.1-8.6 51.6-6.05 51.45-5.15L51.45-5.15Q50.95-1.85 50.75-1.5L50.75-1.5Q50.7-1.2 50.62-0.78 50.55-0.35 50.47-0.15 50.4 0.05 50.25 0.05L50.25 0.05Q49.85 0.05 49.67-0.15 49.5-0.35 49.2-1L49.2-1Q48.8-1.5 47.15-5.85L47.15-5.85Q46.8-6.75 45.05-11.7L45.05-11.7Q44.75-12.75 44.05-14.55L44.05-14.55 43.35-16.4 42.65-15Q42.15-13.9 41.15-11.3L41.15-11.3 40.75-10.3Q40.15-8.55 38.85-3.15L38.85-3.15 38.5-1.7Q38.35-1.1 38.02-0.53 37.7 0.05 37.45 0.05L37.45 0.05Q37.1 0.05 36.92-0.2 36.75-0.45 36.6-1L36.6-1Q36.4-1.4 35.9-3.85L35.9-3.85Q35.7-4.65 35.3-6.28 34.9-7.9 34.7-8.4L34.7-8.4Q34.25-9.5 33.65-11.63 33.05-13.75 32.95-14.15L32.95-14.15Q32.55-15.1 30.65-22.2L30.65-22.2Q30.35-23.15 30.1-24.08 29.85-25 29.65-25.7L29.65-25.7 28.7-29.25 27.6-33.3Q27.4-33.95 27.4-34.3L27.4-34.3Q27.4-34.45 27.5-34.5 27.6-34.55 27.75-34.55L27.75-34.55 29.3-34.55Q30.15-34.55 30.5-34.6L30.5-34.6 31.05-34.7Q31.55-34.85 31.72-34.55 31.9-34.25 32.1-33.3L32.1-33.3Q32.2-32.9 33.1-29.78 34-26.65 35.2-23.65L35.2-23.65Q36.15-20.7 36.95-18.75L36.95-18.75 37.8-16.55ZM73.25-35.85Q78-35.85 81.07-33.98 84.14-32.1 85.84-30.4L85.84-30.4Q86.05-30.2 86.05-29.95L86.05-29.95Q86.05-29.8 85.92-29.58 85.8-29.35 85.75-29.25L85.75-29.25Q85.5-28.9 84.92-28.03 84.34-27.15 84-26.75L84-26.75Q83.84-26.55 83.67-26.33 83.5-26.1 83.37-26 83.25-25.9 83-25.9L83-25.9Q82.89-25.9 82.52-26.23 82.14-26.55 81.8-26.8L81.8-26.8Q79.8-28.55 77.89-29.8 76-31.05 74.25-31.05L74.25-31.05Q72.84-31.05 71.94-30.43 71.05-29.8 71.05-27.6L71.05-27.6Q71.05-25.45 72.64-24.25 74.25-23.05 76.89-21.95L76.89-21.95Q77.14-21.85 79.82-20.7 82.5-19.55 84.57-16.3 86.64-13.05 86.64-8.55L86.64-8.55Q86.64-3.75 83.05-1.35 79.44 1.05 73.09 1.05L73.09 1.05Q65.89 1.05 63.95-1.73 61.99-4.5 61.89-4.6L61.89-4.6Q61.7-4.85 61.7-5.1L61.7-5.1Q61.7-5.25 62.09-5.75L62.09-5.75Q62.74-6.65 63.99-7.9L63.99-7.9Q64.19-8.1 64.39-8.1L64.39-8.1Q64.64-8.1 64.94-7.73 65.25-7.35 65.44-7.15L65.44-7.15Q68.39-4.2 72.14-4.2L72.14-4.2Q74.05-4.2 75.44-4.93 76.84-5.65 76.84-7.65L76.84-7.65Q76.84-11.1 71.39-15L71.39-15Q70.5-15.6 69.69-16L69.69-16Q67.59-17.15 66.09-18.25 64.59-19.35 63.45-21.15 62.3-22.95 62.3-25.35L62.3-25.35Q62.3-28.35 64.17-30.75 66.05-33.15 68.67-34.5 71.3-35.85 73.25-35.85L73.25-35.85Z" opacity="1" transform="matrix(1,0,0,1,0,0)" fill="#0564bd" class="wordmark-text-0" data-fill-palette-color="primary" id="text-0"></path></svg></g></svg></g></svg></g></svg></g><g transform="matrix(1,0,0,1,493.7495051362539,0)"><svg viewBox="0 0 158.19037579883107 241.41063813285456" height="241.41063813285456" width="158.19037579883107"><g><svg xmlns="http://www.w3.org/2000/svg" xmlns:xlink="http://www.w3.org/1999/xlink" version="1.1" x="0" y="0" viewBox="28 16.5 43.903430521934624 67" enable-background="new 0 0 100 100" xml:space="preserve" height="241.41063813285456" width="158.19037579883107" class="icon-icon-0" data-fill-palette-color="accent" id="icon-0"><g fill="#c1c7d7" data-fill-palette-color="accent"><path d="M67.4 16.5H32.6c-2.5 0-4.6 2.1-4.6 4.6v57.8c0 2.5 2.1 4.6 4.6 4.6h34.7c2.5 0 4.6-2.1 4.6-4.6V21.1C72 18.6 69.9 16.5 67.4 16.5zM64.6 76.1H35.4V23.9h29.1V76.1z" fill="#c1c7d7" data-fill-palette-color="accent"></path><path d="M47.5 72.2h5.4c2 0 3.7-1.7 3.7-3.7 0-2-1.7-3.7-3.7-3.7h-5.4c-2 0-3.7 1.7-3.7 3.7C43.8 70.5 45.5 72.2 47.5 72.2z" fill="#c1c7d7" data-fill-palette-color="accent"></path></g></svg></g></svg></g></svg></g><defs></defs></svg><rect width="395.5199999999999" height="146.45941809443323" fill="none" stroke="none" visibility="hidden"></rect></g></svg></g></svg>